<svg xmlns="http://www.w3.org/2000/svg" xmlns:xlink="http://www.w3.org/1999/xlink" width="217" height="194" viewBox="0 0 217 194">
    <defs>
        <linearGradient id="8kn5gtlkvb" x1="77.322%" x2="6.752%" y1="0%" y2="146.499%">
            <stop offset="0%" stop-color="#85A1C6"/>
            <stop offset="100%" stop-color="#1B283E"/>
        </linearGradient>
        <linearGradient id="kr7n2y1xnc" x1="-17.071%" x2="167.986%" y1="-26.592%" y2="175.689%">
            <stop offset="0%" stop-color="#00BAFF"/>
            <stop offset="100%" stop-color="#83234B" stop-opacity="0"/>
        </linearGradient>
        <linearGradient id="lo4ml8afuf" x1="8.307%" x2="109.293%" y1="21.46%" y2="103.145%">
            <stop offset="0%" stop-color="#233249"/>
            <stop offset="100%" stop-color="#0F1723"/>
        </linearGradient>
        <linearGradient id="3elb6as9qh" x1="154.902%" x2="24.379%" y1="138.188%" y2="14.184%">
            <stop offset="0%" stop-color="#76E1FF"/>
            <stop offset="100%" stop-color="#637BFF" stop-opacity="0"/>
        </linearGradient>
        <linearGradient id="aajivj2u6i" x1="13.96%" x2="105.629%" y1=".616%" y2="98.781%">
            <stop offset="0%" stop-color="#587CB9"/>
            <stop offset="100%" stop-color="#2E4469" stop-opacity="0"/>
        </linearGradient>
        <linearGradient id="sf4awulu5o" x1="98.741%" x2="1.259%" y1="48.741%" y2="48.741%">
            <stop offset="0%" stop-color="#21C8F6"/>
            <stop offset="100%" stop-color="#637BFF"/>
        </linearGradient>
        <linearGradient id="piv3ew1mnp" x1="98.741%" x2="1.259%" y1="48.741%" y2="48.741%">
            <stop offset="0%" stop-color="#21C8F6"/>
            <stop offset="100%" stop-color="#637BFF"/>
        </linearGradient>
        <path id="o4fy8cbp1d" d="M16.723 0h88.557c9.236 0 16.724 7.487 16.724 16.723v71.025c0 6.892-4.228 13.078-10.649 15.581-10.548 4.113-26.634 6.17-48.257 6.17-22.927 0-40.389-2.312-52.388-6.936C4.257 100.077 0 93.874 0 86.958V16.723C0 7.487 7.487 0 16.723 0z"/>
        <path id="gh5khououe" d="M16.723 0h88.557c9.236 0 16.724 7.487 16.724 16.723v71.025c0 6.892-4.228 13.078-10.649 15.581-10.548 4.113-26.634 6.17-48.257 6.17-22.927 0-40.389-2.312-52.388-6.936C4.257 100.077 0 93.874 0 86.958V16.723C0 7.487 7.487 0 16.723 0z"/>
        <path id="eg7pipbrcg" d="M16.723 0h88.557c9.236 0 16.724 7.487 16.724 16.723v71.025c0 6.892-4.228 13.078-10.649 15.581-10.548 4.113-26.634 6.17-48.257 6.17-22.927 0-40.389-2.312-52.388-6.936C4.257 100.077 0 93.874 0 86.958V16.723C0 7.487 7.487 0 16.723 0z"/>
        <path id="yjzhwacb0l" d="M100.376 107.876c5.523 0 10 4.477 10 10s-4.477 10-10 10c-5.522 0-10-4.477-10-10s4.478-10 10-10zm-1.538-80c16.542 0 30 13.668 30 30.468 0 8.956-3.857 17.42-10.582 23.224-6.724 5.804-7.001 4.076-7.88 6.804-.585 1.82-.585 5.221 0 10.207H87.3c-.64-11.391-.64-18.406 0-21.044.641-2.637 5.979-7.246 16.012-13.825 1.557-1.344 2.45-3.3 2.45-5.366 0-3.877-3.106-7.03-6.923-7.03-3.818 0-6.923 3.153-6.923 7.03v2.93H68.838v-2.93c0-16.8 13.458-30.468 30-30.468z"/>
        <radialGradient id="vscvbj6kqa" cx="50%" cy="41.178%" r="49.394%" fx="50%" fy="41.178%" gradientTransform="matrix(0 1 -.89466 0 .868 -.088)">
            <stop offset="0%" stop-opacity=".798"/>
            <stop offset="100%" stop-opacity="0"/>
        </radialGradient>
        <radialGradient id="62xfbzczam" cx="50%" cy="50%" r="68.4%" fx="50%" fy="50%" gradientTransform="matrix(1 0 0 .6 0 .2)">
            <stop offset="0%" stop-color="#21C8F6"/>
            <stop offset="100%" stop-color="#4BDEFF"/>
        </radialGradient>
        <ellipse id="2ra2habfmn" cx="34.974" cy="34.821" rx="34.974" ry="34.821"/>
        <ellipse id="0pc25z7xkr" cx="34.974" cy="34.821" rx="34.974" ry="34.821"/>
        <filter id="9xfeaahrqk" width="158.3%" height="135%" x="-29.2%" y="-15.5%" filterUnits="objectBoundingBox">
            <feOffset dy="2" in="SourceAlpha" result="shadowOffsetOuter1"/>
            <feGaussianBlur in="shadowOffsetOuter1" result="shadowBlurOuter1" stdDeviation="5.5"/>
            <feColorMatrix in="shadowBlurOuter1" values="0 0 0 0 0.137254902 0 0 0 0 0.788235294 0 0 0 0 0.968627451 0 0 0 1 0"/>
        </filter>
    </defs>
    <g fill="none" fill-rule="evenodd" opacity=".404">
        <g>
            <g style="mix-blend-mode:luminosity" transform="translate(-669 -216) translate(671 216)">
                <ellipse cx="131.838" cy="185.376" fill="url(#vscvbj6kqa)" rx="43" ry="8"/>
                <g>
                    <path fill="url(#8kn5gtlkvb)" d="M54.331 0h78.757c19.791 0 35.835 16.044 35.835 35.836v82.905c0 23.75-19.253 43.003-43.002 43.003H61.498c-23.75 0-43.003-19.253-43.003-43.003V35.836C18.495 16.044 34.54 0 54.331 0z" transform="rotate(10 9.06 163.295)"/>
                    <path fill="url(#kr7n2y1xnc)" fill-rule="nonzero" d="M54.331 0h78.757c19.791 0 35.835 16.044 35.835 35.836v82.905c0 23.75-19.253 43.003-43.002 43.003H61.498c-23.75 0-43.003-19.253-43.003-43.003V35.836C18.495 16.044 34.54 0 54.331 0z" transform="rotate(10 9.06 163.295)"/>
                    <path fill="#222" fill-opacity=".468" d="M18.265 99.468c0 23.75 19.253 43.003 43.003 43.003h67.097c23.75 0 43.003-19.253 43.003-43.003v19.417c0 23.75-19.253 43.003-43.003 43.003H61.268c-23.75 0-43.003-19.253-43.003-43.003z" opacity=".405" transform="rotate(10 9.06 163.295)"/>
                    <g transform="rotate(10 9.06 163.295) translate(33.26 24.066)">
                        <use fill="#1B283E" xlink:href="#o4fy8cbp1d"/>
                        <use fill="url(#lo4ml8afuf)" fill-rule="nonzero" xlink:href="#gh5khououe"/>
                        <mask id="2imxqjwakj" fill="#fff">
                            <use xlink:href="#eg7pipbrcg"/>
                        </mask>
                        <path stroke="url(#3elb6as9qh)" stroke-width="2.552" d="M105.28 1.276c4.266 0 8.128 1.73 10.923 4.525 2.795 2.795 4.524 6.657 4.524 10.922h0v71.025c0 3.183-.976 6.203-2.693 8.716-1.718 2.513-4.177 4.52-7.142 5.676-10.447 4.073-26.383 6.082-47.794 6.082-22.722 0-40.035-2.267-51.929-6.85-2.98-1.148-5.453-3.154-7.182-5.672-1.728-2.518-2.71-5.548-2.71-8.742h0V16.723c0-4.265 1.728-8.127 4.524-10.922 2.795-2.796 6.657-4.525 10.922-4.525h0z"/>
                        <ellipse cx="34.346" cy="20.456" fill="url(#aajivj2u6i)" mask="url(#2imxqjwakj)" opacity=".778" rx="67.508" ry="68.587"/>
                    </g>
                    <g fill="#243552">
                        <path d="M5.693 9.855H1.887C.845 9.855 0 8.993 0 7.929c0-1.063.845-1.925 1.887-1.925h3.806c1.042 0 1.887.862 1.887 1.925 0 1.064-.845 1.926-1.887 1.926zM12.8 4.56H8.992c-1.042 0-1.887-.862-1.887-1.925 0-1.063.845-1.925 1.887-1.925h3.806c1.042 0 1.887.862 1.887 1.925 0 1.063-.845 1.925-1.887 1.925zM32.22 9.855H11.374c-1.05 0-1.9-.862-1.9-1.926 0-1.063.85-1.925 1.9-1.925H32.21c1.05 0 1.9.862 1.9 1.925 0 1.064-.85 1.926-1.9 1.926h.01zM39.241 4.56H18.555c-1.09 0-1.974-.862-1.974-1.925 0-1.063.884-1.925 1.974-1.925h20.686c1.09 0 1.975.862 1.975 1.925 0 1.063-.884 1.925-1.975 1.925z" transform="rotate(10 9.06 163.295) translate(104.126 7.232)"/>
                    </g>
                    <g fill-rule="nonzero" transform="rotate(10 9.06 163.295) rotate(-27 98.838 77.876)">
                        <use fill="#000" filter="url(#9xfeaahrqk)" xlink:href="#yjzhwacb0l"/>
                        <use fill="url(#62xfbzczam)" xlink:href="#yjzhwacb0l"/>
                    </g>
                    <g>
                        <g>
                            <g transform="rotate(10 9.06 163.295) rotate(-1 1564.94 -6.453) translate(.445 .948) translate(12.718 1.583)">
                                <mask id="3sgmqzi1xq" fill="#fff">
                                    <use xlink:href="#2ra2habfmn"/>
                                </mask>
                                <use fill="url(#sf4awulu5o)" opacity=".157" xlink:href="#2ra2habfmn"/>
                                <path fill="url(#piv3ew1mnp)" d="M33.28 3.731L6.787 54.21 27.796 67.494 54.573 10.816z" mask="url(#3sgmqzi1xq)" opacity=".2"/>
                            </g>
                            <g transform="rotate(10 9.06 163.295) rotate(-1 1564.94 -6.453) translate(.445 .948) translate(103.33 1.583)">
                                <mask id="uuv2j7np7s" fill="#fff">
                                    <use xlink:href="#0pc25z7xkr"/>
                                </mask>
                                <use fill="url(#sf4awulu5o)" opacity=".157" xlink:href="#0pc25z7xkr"/>
                                <path fill="url(#piv3ew1mnp)" d="M33.096 3.731L6.603 54.21 27.613 67.494 54.389 10.816z" mask="url(#uuv2j7np7s)" opacity=".2"/>
                            </g>
                            <path fill="#1B283E" stroke="#1B283E" stroke-width="2.476" d="M137.552 69.33c-17.872 0-32.36-14.387-32.36-32.135 0-17.746 14.488-32.133 32.36-32.133s32.36 14.387 32.36 32.133c0 17.748-14.488 32.135-32.36 32.135zm-90.36 0c-17.873 0-32.36-14.387-32.36-32.135 0-17.746 14.487-32.133 32.36-32.133 17.872 0 32.36 14.387 32.36 32.133 0 17.748-14.488 32.135-32.36 32.135zm124.56-51.844c-2.702-3.097-7.835-7.11-10.908-9.404-.79-.626-1.6-1.225-2.442-1.787l-.053-.039v.005C152.4 2.308 145.25 0 137.553 0c-10.367 0-19.75 4.183-26.532 10.941-3.283 3.047-6.114 6.383-9.04 9.65-3.707 4.143-5.9 2.11-9.608 2.11-3.707 0-5.901 2.033-9.608-2.11-2.926-3.267-5.758-6.603-9.04-9.65C66.94 4.183 57.443 0 47.076 0c-7.696 0-15.304 2.308-20.911 6.26v-.004l.058.04c-.842.561-1.598 1.16-2.388 1.786-3.074 2.294-8.34 6.307-11.043 9.404C8.777 22.087 0 22.394 0 22.394v9.51s5.253-.307 6.952 1.687c1.004 1.176 2.086 6.842 3.853 12.77.54 2.113 1.306 4.15 2.191 6.1.828 1.939 1.795 3.735 2.9 5.21l.01-.01c6.702 10.077 18.21 16.73 31.28 16.73 15.178 0 28.24-8.97 34.125-21.857l.03-.036.087-.144c2.688-4.531 5.396-16.943 6.619-18.916 1.235-1.995 4.325-2.148 4.325-2.148s3.09.153 4.325 2.148c1.223 1.973 3.93 14.385 6.618 18.916l.087.144.028.036c5.885 12.887 18.944 21.857 34.122 21.857 13.072 0 24.573-6.653 31.274-16.73l.003.01c1.105-1.475 2.052-3.27 2.878-5.21.886-1.95 1.615-3.987 2.154-6.1 1.766-5.928 2.759-11.594 3.761-12.77 1.7-1.994 6.784-1.687 6.784-1.687v-9.51s-8.637-.307-12.653-4.908h0z" transform="rotate(10 9.06 163.295) rotate(-1 1564.94 -6.453) translate(.445 .948)"/>
                            <path fill="#111B2C" stroke="#111B2C" stroke-width="2.277" d="M137.552 69.33c-17.872 0-32.36-14.387-32.36-32.135 0-17.746 14.488-32.133 32.36-32.133s32.36 14.387 32.36 32.133c0 17.748-14.488 32.135-32.36 32.135zm-90.36 0c-17.873 0-32.36-14.387-32.36-32.135 0-17.746 14.487-32.133 32.36-32.133 17.872 0 32.36 14.387 32.36 32.133 0 17.748-14.488 32.135-32.36 32.135zm124.56-51.844c-2.702-3.097-7.835-7.11-10.908-9.404-.79-.626-1.6-1.225-2.442-1.787l-.053-.039v.005C152.4 2.308 145.25 0 137.553 0c-10.367 0-19.75 4.183-26.532 10.941-3.283 3.047-6.114 6.383-9.04 9.65-3.707 4.143-5.9 2.11-9.608 2.11-3.707 0-5.901 2.033-9.608-2.11-2.926-3.267-5.758-6.603-9.04-9.65C66.94 4.183 57.443 0 47.076 0c-7.696 0-15.304 2.308-20.911 6.26v-.004l.058.04c-.842.561-1.598 1.16-2.388 1.786-3.074 2.294-8.34 6.307-11.043 9.404C8.777 22.087 0 22.394 0 22.394v9.51s5.253-.307 6.952 1.687c1.004 1.176 2.086 6.842 3.853 12.77.54 2.113 1.306 4.15 2.191 6.1.828 1.939 1.795 3.735 2.9 5.21l.01-.01c6.702 10.077 18.21 16.73 31.28 16.73 15.178 0 28.24-8.97 34.125-21.857l.03-.036.087-.144c2.688-4.531 5.396-16.943 6.619-18.916 1.235-1.995 4.325-2.148 4.325-2.148s3.09.153 4.325 2.148c1.223 1.973 3.93 14.385 6.618 18.916l.087.144.028.036c5.885 12.887 18.944 21.857 34.122 21.857 13.072 0 24.573-6.653 31.274-16.73l.003.01c1.105-1.475 2.052-3.27 2.878-5.21.886-1.95 1.615-3.987 2.154-6.1 1.766-5.928 2.759-11.594 3.761-12.77 1.7-1.994 6.784-1.687 6.784-1.687v-9.51s-8.637-.307-12.653-4.908h0z" transform="rotate(10 9.06 163.295) rotate(-1 1564.94 -6.453) translate(.445 .948)"/>
                        </g>
                    </g>
                </g>
            </g>
        </g>
    </g>
</svg>
